<svg xmlns="http://www.w3.org/2000/svg" xmlns:xlink="http://www.w3.org/1999/xlink" viewBox="0 0 100 100" xml:space="preserve">
    <path d="M7.8 89.8c0 2.2 1.8 4 4 4h32.4V47.3H7.8v42.5zM51.7 93.8h32.4c2.2 0 4-1.8 4-4V47.3H51.7v46.5zM91.5 25.2H72.1c2.5-.8 4.7-2.2 6.4-4.3 2.5-3.2 3.3-7.2 2.3-11.1-1.1-4.3-4.3-7.7-8.6-9C68-.6 63.4.3 60 3.2L48 13.5 36 3.2C32.6.3 28-.6 23.8.7c-4.2 1.3-7.4 4.7-8.6 9-1 3.9-.2 7.9 2.3 11.1 1.6 2.1 3.9 3.6 6.4 4.3H4.5c-2.2 0-4 1.8-4 4v6.6c0 2.3 1.8 4 4 4h39.7v-14h7.5v14h39.7c2.3 0 4-1.8 4-4v-6.6c.1-2.1-1.7-3.9-3.9-3.9zM23.1 11.8c.4-1.6 1.6-2.8 3.2-3.3.5-.2 1-.2 1.5-.2 1.1 0 2.2.4 3 1.1l9.8 8.3H27.7c-1.5 0-2.8-.7-3.7-1.8-1-1.2-1.3-2.6-.9-4.1zm42.2-2.4c1.3-1.1 2.9-1.4 4.5-.9 1.6.5 2.7 1.7 3.2 3.3.4 1.4.1 2.9-.8 4.1-.9 1.2-2.3 1.8-3.7 1.8H55.6l9.7-8.3z"/>
</svg>