<svg xmlns="http://www.w3.org/2000/svg" xmlns:xlink="http://www.w3.org/1999/xlink" viewBox="0 -20 180 180">
    <defs>
        <path id="a" d="M.06.04H176V124H.06z" />
    </defs>
    <g>
        <path
            d="M172.322 19.363c-2.024-7.622-7.987-13.624-15.56-15.661C143.037 0 88 0 88 0S32.963 0 19.238 3.702c-7.572 2.037-13.536 8.039-15.56 15.661C0 33.177 0 62 0 62s0 28.822 3.678 42.638c2.024 7.621 7.988 13.623 15.56 15.661C32.963 124 88 124 88 124s55.037 0 68.762-3.701c7.573-2.038 13.536-8.04 15.56-15.661C176 90.822 176 62 176 62s0-28.823-3.678-42.637" />
        <path d="M70 88.169l46-26.168-46-26.17v52.338" fill="#141212" />
    </g>
</svg>